<svg
  version="1.1"
  viewBox="0.0 0.0 960.4173228346457 512.2047244094488"
  fill="none"
  stroke="none"
  stroke-linecap="square"
  stroke-miterlimit="10"
  xmlns:xlink="http://www.w3.org/1999/xlink"
  xmlns="http://www.w3.org/2000/svg"
>
  <clipPath id="p.0">
    <path
      d="m0 0l960.4173 0l0 512.2047l-960.4173 0l0 -512.2047z"
      clip-rule="nonzero"
    />
  </clipPath>
  <g clip-path="url(#p.0)">
    <path
      fill="#000000"
      fill-opacity="0.0"
      d="m0 0l960.4173 0l0 512.2047l-960.4173 0z"
      fill-rule="evenodd"
    />
    <path
      fill="#ffd966"
      d="m198.40897 0l319.2441 0l0 122.23622l-319.2441 0z"
      fill-rule="evenodd"
    />
    <path
      stroke="#f1c232"
      stroke-width="1.0"
      stroke-linejoin="round"
      stroke-linecap="butt"
      d="m198.40897 0l319.2441 0l0 122.23622l-319.2441 0z"
      fill-rule="evenodd"
    />
    <path
      fill="#000000"
      d="m332.30756 59.22561l-6.203125 2.28125l6.203125 2.265625l0 2.328125l-8.875 -3.375l0 -2.4375l8.875 -3.375l0 2.3125zm8.425079 -1.375q1.390625 0 2.53125 0.640625q1.15625 0.640625 1.8125 1.8125q0.65625 1.171875 0.65625 2.71875q0 1.546875 -0.65625 2.71875q-0.65625 1.15625 -1.8125 1.8125q-1.140625 0.640625 -2.53125 0.640625q-2.078125 0 -3.15625 -1.3125l0 1.15625l-2.78125 0l0 -13.84375l2.90625 0l0 4.875q1.109375 -1.21875 3.03125 -1.21875zm-0.515625 7.953125q1.125 0 1.84375 -0.75q0.71875 -0.765625 0.71875 -2.03125q0 -1.265625 -0.71875 -2.015625q-0.71875 -0.765625 -1.84375 -0.765625q-1.109375 0 -1.828125 0.765625q-0.71875 0.75 -0.71875 2.015625q0 1.265625 0.71875 2.03125q0.71875 0.75 1.828125 0.75zm12.232208 2.390625q-1.59375 0 -2.859375 -0.65625q-1.25 -0.671875 -1.96875 -1.84375q-0.703125 -1.1875 -0.703125 -2.671875q0 -1.5 0.703125 -2.671875q0.71875 -1.171875 1.96875 -1.828125q1.265625 -0.671875 2.859375 -0.671875q1.578125 0 2.828125 0.671875q1.25 0.65625 1.953125 1.828125q0.71875 1.171875 0.71875 2.671875q0 1.484375 -0.71875 2.671875q-0.703125 1.171875 -1.953125 1.84375q-1.25 0.65625 -2.828125 0.65625zm0 -2.390625q1.109375 0 1.828125 -0.75q0.71875 -0.765625 0.71875 -2.03125q0 -1.265625 -0.71875 -2.015625q-0.71875 -0.765625 -1.828125 -0.765625q-1.125 0 -1.859375 0.765625q-0.71875 0.75 -0.71875 2.015625q0 1.265625 0.71875 2.03125q0.734375 0.75 1.859375 0.75zm17.657349 -11.609375l0 13.84375l-2.78125 0l0 -1.15625q-1.078125 1.3125 -3.125 1.3125q-1.421875 0 -2.578125 -0.640625q-1.140625 -0.640625 -1.796875 -1.8125q-0.640625 -1.171875 -0.640625 -2.71875q0 -1.546875 0.640625 -2.71875q0.65625 -1.1875 1.796875 -1.8125q1.15625 -0.640625 2.578125 -0.640625q1.921875 0 3.0 1.21875l0 -4.875l2.90625 0zm-5.40625 11.609375q1.09375 0 1.828125 -0.75q0.734375 -0.765625 0.734375 -2.03125q0 -1.265625 -0.734375 -2.015625q-0.734375 -0.765625 -1.828125 -0.765625q-1.125 0 -1.859375 0.765625q-0.71875 0.75 -0.71875 2.015625q0 1.265625 0.71875 2.03125q0.734375 0.75 1.859375 0.75zm18.066376 -7.796875l-4.546875 10.640625q-0.6875 1.734375 -1.703125 2.4375q-1.015625 0.71875 -2.453125 0.71875q-0.78125 0 -1.546875 -0.25q-0.765625 -0.234375 -1.25 -0.65625l1.0625 -2.078125q0.34375 0.296875 0.78125 0.46875q0.4375 0.171875 0.859375 0.171875q0.59375 0 0.96875 -0.296875q0.375 -0.28125 0.671875 -0.953125l0.046875 -0.09375l-4.359375 -10.109375l3.015625 0l2.8125 6.796875l2.828125 -6.796875l2.8125 0zm9.875183 2.28125l0 2.4375l-8.875 3.375l0 -2.328125l6.21875 -2.265625l-6.21875 -2.28125l0 -2.3125l8.875 3.375z"
      fill-rule="nonzero"
    />
    <path
      fill="#93c47d"
      d="m-0.006515748 202.22446l319.2441 0l0 122.236206l-319.2441 0z"
      fill-rule="evenodd"
    />
    <path
      stroke="#6aa84f"
      stroke-width="1.0"
      stroke-linejoin="round"
      stroke-linecap="butt"
      d="m-0.006515748 202.22446l319.2441 0l0 122.236206l-319.2441 0z"
      fill-rule="evenodd"
    />
    <path
      fill="#000000"
      d="m148.54665 261.45007l-6.203125 2.28125l6.203125 2.265625l0 2.328125l-8.875 -3.375l0 -2.4375l8.875 -3.375l0 2.3125zm8.581345 -1.375q1.875 0 3.015625 1.125q1.15625 1.109375 1.15625 3.3125l0 5.75l-2.921875 0l0 -5.296875q0 -1.203125 -0.515625 -1.78125q-0.515625 -0.59375 -1.515625 -0.59375q-1.09375 0 -1.75 0.6875q-0.65625 0.671875 -0.65625 2.015625l0 4.96875l-2.90625 0l0 -13.84375l2.90625 0l0 4.84375q0.578125 -0.578125 1.390625 -0.875q0.828125 -0.3125 1.796875 -0.3125zm10.864929 -2.875l0 13.0625l-3.015625 0l0 -10.640625l-2.625 0l0 -2.421875l5.640625 0zm11.578873 5.3125l0 2.4375l-8.875 3.375l0 -2.328125l6.21875 -2.265625l-6.21875 -2.28125l0 -2.3125l8.875 3.375z"
      fill-rule="nonzero"
    />
    <path
      fill="#93c47d"
      d="m439.12964 202.22446l319.24408 0l0 122.236206l-319.24408 0z"
      fill-rule="evenodd"
    />
    <path
      stroke="#6aa84f"
      stroke-width="1.0"
      stroke-linejoin="round"
      stroke-linecap="butt"
      d="m439.12964 202.22446l319.24408 0l0 122.236206l-319.24408 0z"
      fill-rule="evenodd"
    />
    <path
      fill="#000000"
      d="m588.39166 261.45007l-6.203125 2.28125l6.203125 2.265625l0 2.328125l-8.875 -3.375l0 -2.4375l8.875 -3.375l0 2.3125zm12.596924 -1.21875l0 10.03125l-2.765625 0l0 -1.1875q-0.578125 0.640625 -1.375 1.0q-0.796875 0.34375 -1.734375 0.34375q-1.984375 0 -3.140625 -1.140625q-1.15625 -1.140625 -1.15625 -3.375l0 -5.671875l2.921875 0l0 5.234375q0 2.421875 2.03125 2.421875q1.046875 0 1.671875 -0.671875q0.640625 -0.6875 0.640625 -2.03125l0 -4.953125l2.90625 0zm2.7075195 -3.8125l2.90625 0l0 13.84375l-2.90625 0l0 -13.84375zm14.30304 6.09375l0 2.4375l-8.875 3.375l0 -2.328125l6.21875 -2.265625l-6.21875 -2.28125l0 -2.3125l8.875 3.375z"
      fill-rule="nonzero"
    />
    <path
      fill="#c27ba0"
      d="m258.87515 426.17175l224.31494 0l0 85.85828l-224.31494 0z"
      fill-rule="evenodd"
    />
    <path
      stroke="#a64d79"
      stroke-width="1.0"
      stroke-linejoin="round"
      stroke-linecap="butt"
      d="m258.87515 426.17175l224.31494 0l0 85.85828l-224.31494 0z"
      fill-rule="evenodd"
    />
    <path
      fill="#000000"
      d="m364.27322 467.20837l-6.203125 2.28125l6.203125 2.265625l0 2.328125l-8.875 -3.375l0 -2.4375l8.875 -3.375l0 2.3125zm2.4876099 -5.03125l2.90625 0l0 13.84375l-2.90625 0l0 -13.84375zm5.6155396 3.8125l2.90625 0l0 10.03125l-2.90625 0l0 -10.03125zm1.453125 -1.40625q-0.8125 0 -1.3125 -0.46875q-0.5 -0.46875 -0.5 -1.15625q0 -0.6875 0.5 -1.15625q0.5 -0.46875 1.3125 -0.46875q0.796875 0 1.296875 0.453125q0.515625 0.453125 0.515625 1.125q0 0.71875 -0.515625 1.203125q-0.5 0.46875 -1.296875 0.46875zm12.849915 3.6875l0 2.4375l-8.875 3.375l0 -2.328125l6.21875 -2.265625l-6.21875 -2.28125l0 -2.3125l8.875 3.375z"
      fill-rule="nonzero"
    />
    <path
      fill="#c27ba0"
      d="m495.37048 426.17175l224.31494 0l0 85.85828l-224.31494 0z"
      fill-rule="evenodd"
    />
    <path
      stroke="#a64d79"
      stroke-width="1.0"
      stroke-linejoin="round"
      stroke-linecap="butt"
      d="m495.37048 426.17175l224.31494 0l0 85.85828l-224.31494 0z"
      fill-rule="evenodd"
    />
    <path
      fill="#000000"
      d="m600.76855 467.20837l-6.203125 2.28125l6.203125 2.265625l0 2.328125l-8.875 -3.375l0 -2.4375l8.875 -3.375l0 2.3125zm2.4876099 -5.03125l2.90625 0l0 13.84375l-2.90625 0l0 -13.84375zm5.6155396 3.8125l2.90625 0l0 10.03125l-2.90625 0l0 -10.03125zm1.453125 -1.40625q-0.8125 0 -1.3125 -0.46875q-0.5 -0.46875 -0.5 -1.15625q0 -0.6875 0.5 -1.15625q0.5 -0.46875 1.3125 -0.46875q0.796875 0 1.296875 0.453125q0.515625 0.453125 0.515625 1.125q0 0.71875 -0.515625 1.203125q-0.5 0.46875 -1.296875 0.46875zm12.849915 3.6875l0 2.4375l-8.875 3.375l0 -2.328125l6.21875 -2.265625l-6.21875 -2.28125l0 -2.3125l8.875 3.375z"
      fill-rule="nonzero"
    />
    <path
      fill="#c27ba0"
      d="m735.69257 426.17175l224.31494 0l0 85.85828l-224.31494 0z"
      fill-rule="evenodd"
    />
    <path
      stroke="#a64d79"
      stroke-width="1.0"
      stroke-linejoin="round"
      stroke-linecap="butt"
      d="m735.69257 426.17175l224.31494 0l0 85.85828l-224.31494 0z"
      fill-rule="evenodd"
    />
    <path
      fill="#000000"
      d="m841.09064 467.20837l-6.203125 2.28125l6.203125 2.265625l0 2.328125l-8.875 -3.375l0 -2.4375l8.875 -3.375l0 2.3125zm2.4876099 -5.03125l2.90625 0l0 13.84375l-2.90625 0l0 -13.84375zm5.6155396 3.8125l2.90625 0l0 10.03125l-2.90625 0l0 -10.03125zm1.453125 -1.40625q-0.8125 0 -1.3125 -0.46875q-0.5 -0.46875 -0.5 -1.15625q0 -0.6875 0.5 -1.15625q0.5 -0.46875 1.3125 -0.46875q0.796875 0 1.296875 0.453125q0.515625 0.453125 0.515625 1.125q0 0.71875 -0.515625 1.203125q-0.5 0.46875 -1.296875 0.46875zm12.849915 3.6875l0 2.4375l-8.875 3.375l0 -2.328125l6.21875 -2.265625l-6.21875 -2.28125l0 -2.3125l8.875 3.375z"
      fill-rule="nonzero"
    />
    <path
      fill="#000000"
      fill-opacity="0.0"
      d="m358.031 122.23622l240.72443 80.0"
      fill-rule="evenodd"
    />
    <path
      stroke="#000000"
      stroke-width="1.0"
      stroke-linejoin="round"
      stroke-linecap="butt"
      d="m358.031 122.23622l235.03058 78.10777"
      fill-rule="evenodd"
    />
    <path
      fill="#000000"
      stroke="#000000"
      stroke-width="1.0"
      stroke-linecap="butt"
      d="m592.5407 201.91144l4.8273926 -0.13626099l-3.7855835 -2.9986267z"
      fill-rule="evenodd"
    />
    <path
      fill="#000000"
      fill-opacity="0.0"
      d="m598.7517 324.46066l-227.71655 101.700806"
      fill-rule="evenodd"
    />
    <path
      stroke="#000000"
      stroke-width="1.0"
      stroke-linejoin="round"
      stroke-linecap="butt"
      d="m598.7517 324.46066l-222.2381 99.25406"
      fill-rule="evenodd"
    />
    <path
      fill="#000000"
      stroke="#000000"
      stroke-width="1.0"
      stroke-linecap="butt"
      d="m375.84003 422.20657l-3.4700623 3.3587341l4.8171997 -0.34243774z"
      fill-rule="evenodd"
    />
    <path
      fill="#000000"
      fill-opacity="0.0"
      d="m598.7517 324.46066l8.787415 101.700806"
      fill-rule="evenodd"
    />
    <path
      stroke="#000000"
      stroke-width="1.0"
      stroke-linejoin="round"
      stroke-linecap="butt"
      d="m598.7517 324.46066l8.270874 95.72305"
      fill-rule="evenodd"
    />
    <path
      fill="#000000"
      stroke="#000000"
      stroke-width="1.0"
      stroke-linecap="butt"
      d="m605.37695 420.32593l2.036255 4.379059l1.2549438 -4.663452z"
      fill-rule="evenodd"
    />
    <path
      fill="#000000"
      fill-opacity="0.0"
      d="m598.7517 324.46066l249.10236 101.700806"
      fill-rule="evenodd"
    />
    <path
      stroke="#000000"
      stroke-width="1.0"
      stroke-linejoin="round"
      stroke-linecap="butt"
      d="m598.7517 324.46066l243.54749 99.43292"
      fill-rule="evenodd"
    />
    <path
      fill="#000000"
      stroke="#000000"
      stroke-width="1.0"
      stroke-linecap="butt"
      d="m841.67487 425.42276l4.8257446 0.18612671l-3.5770874 -3.2445068z"
      fill-rule="evenodd"
    />
    <path
      fill="#000000"
      fill-opacity="0.0"
      d="m358.031 122.23622l-198.42519 80.0"
      fill-rule="evenodd"
    />
    <path
      stroke="#000000"
      stroke-width="1.0"
      stroke-linejoin="round"
      stroke-linecap="butt"
      d="m358.031 122.23622l-192.86044 77.75644"
      fill-rule="evenodd"
    />
    <path
      fill="#000000"
      stroke="#000000"
      stroke-width="1.0"
      stroke-linecap="butt"
      d="m164.55293 198.46074l-3.5912628 3.228836l4.826523 -0.16500854z"
      fill-rule="evenodd"
    />
  </g>
</svg>
