<svg
  version="1.1"
  viewBox="240 100 800 500"
  fill="none"
  stroke="none"
  stroke-linecap="square"
  stroke-miterlimit="10"
  xmlns:xlink="http://www.w3.org/1999/xlink"
  xmlns="http://www.w3.org/2000/svg"
>
  <clipPath id="p.0">
    <path d="m0 0l960.0 0l0 720.0l-960.0 0l0 -720.0z" clip-rule="nonzero" />
  </clipPath>
  <g clip-path="url(#p.0)">
    <path
      fill="#000000"
      fill-opacity="0.0"
      d="m0 0l960.0 0l0 720.0l-960.0 0z"
      fill-rule="evenodd"
    />
    <path
      fill="#ffd966"
      d="m410.979 100.698166l210.20471 0l0 84.97638l-210.20471 0z"
      fill-rule="evenodd"
    />
    <path
      stroke="#f1c232"
      stroke-width="1.0"
      stroke-linejoin="round"
      stroke-linecap="butt"
      d="m410.979 100.698166l210.20471 0l0 84.97638l-210.20471 0z"
      fill-rule="evenodd"
    />
    <path
      fill="#000000"
      d="m490.3579 141.29385l-6.203125 2.28125l6.203125 2.265625l0 2.328125l-8.875 -3.375l0 -2.4375l8.875 -3.375l0 2.3125zm8.425079 -1.375q1.390625 0 2.53125 0.640625q1.15625 0.640625 1.8125 1.8125q0.65625 1.171875 0.65625 2.71875q0 1.546875 -0.65625 2.71875q-0.65625 1.15625 -1.8125 1.8125q-1.140625 0.640625 -2.53125 0.640625q-2.078125 0 -3.15625 -1.3125l0 1.15625l-2.78125 0l0 -13.84375l2.90625 0l0 4.875q1.109375 -1.21875 3.03125 -1.21875zm-0.515625 7.953125q1.125 0 1.84375 -0.75q0.71875 -0.765625 0.71875 -2.03125q0 -1.265625 -0.71875 -2.015625q-0.71875 -0.765625 -1.84375 -0.765625q-1.109375 0 -1.828125 0.765625q-0.71875 0.75 -0.71875 2.015625q0 1.265625 0.71875 2.03125q0.71875 0.75 1.828125 0.75zm12.232208 2.390625q-1.59375 0 -2.859375 -0.65625q-1.25 -0.671875 -1.96875 -1.84375q-0.703125 -1.1875 -0.703125 -2.671875q0 -1.5 0.703125 -2.671875q0.71875 -1.171875 1.96875 -1.828125q1.265625 -0.671875 2.859375 -0.671875q1.578125 0 2.828125 0.671875q1.25 0.65625 1.953125 1.828125q0.71875 1.171875 0.71875 2.671875q0 1.484375 -0.71875 2.671875q-0.703125 1.171875 -1.953125 1.84375q-1.25 0.65625 -2.828125 0.65625zm0 -2.390625q1.109375 0 1.828125 -0.75q0.71875 -0.765625 0.71875 -2.03125q0 -1.265625 -0.71875 -2.015625q-0.71875 -0.765625 -1.828125 -0.765625q-1.125 0 -1.859375 0.765625q-0.71875 0.75 -0.71875 2.015625q0 1.265625 0.71875 2.03125q0.734375 0.75 1.859375 0.75zm17.657349 -11.609375l0 13.84375l-2.78125 0l0 -1.15625q-1.078125 1.3125 -3.125 1.3125q-1.421875 0 -2.578125 -0.640625q-1.140625 -0.640625 -1.796875 -1.8125q-0.640625 -1.171875 -0.640625 -2.71875q0 -1.546875 0.640625 -2.71875q0.65625 -1.1875 1.796875 -1.8125q1.15625 -0.640625 2.578125 -0.640625q1.921875 0 3.0 1.21875l0 -4.875l2.90625 0zm-5.40625 11.609375q1.09375 0 1.828125 -0.75q0.734375 -0.765625 0.734375 -2.03125q0 -1.265625 -0.734375 -2.015625q-0.734375 -0.765625 -1.828125 -0.765625q-1.125 0 -1.859375 0.765625q-0.71875 0.75 -0.71875 2.015625q0 1.265625 0.71875 2.03125q0.734375 0.75 1.859375 0.75zm18.066345 -7.796875l-4.546875 10.640625q-0.6875 1.734375 -1.703125 2.4375q-1.015625 0.71875 -2.453125 0.71875q-0.78125 0 -1.546875 -0.25q-0.765625 -0.234375 -1.25 -0.65625l1.0625 -2.078125q0.34375 0.296875 0.78125 0.46875q0.4375 0.171875 0.859375 0.171875q0.59375 0 0.96875 -0.296875q0.375 -0.28125 0.671875 -0.953125l0.046875 -0.09375l-4.359375 -10.109375l3.015625 0l2.8125 6.796875l2.828125 -6.796875l2.8125 0zm9.875183 2.28125l0 2.4375l-8.875 3.375l0 -2.328125l6.21875 -2.265625l-6.21875 -2.28125l0 -2.3125l8.875 3.375z"
      fill-rule="nonzero"
    />
    <path
      fill="#93c47d"
      d="m280.33334 241.31496l210.20471 0l0 84.976395l-210.20471 0z"
      fill-rule="evenodd"
    />
    <path
      stroke="#6aa84f"
      stroke-width="1.0"
      stroke-linejoin="round"
      stroke-linecap="butt"
      d="m280.33334 241.31496l210.20471 0l0 84.976395l-210.20471 0z"
      fill-rule="evenodd"
    />
    <path
      fill="#000000"
      d="m374.36682 281.91064l-6.203125 2.28125l6.203125 2.265625l0 2.328125l-8.875 -3.375l0 -2.4375l8.875 -3.375l0 2.3125zm8.58136 -1.375q1.875 0 3.015625 1.125q1.15625 1.109375 1.15625 3.3125l0 5.75l-2.921875 0l0 -5.296875q0 -1.203125 -0.515625 -1.78125q-0.515625 -0.59375 -1.515625 -0.59375q-1.09375 0 -1.75 0.6875q-0.65625 0.671875 -0.65625 2.015625l0 4.96875l-2.90625 0l0 -13.84375l2.90625 0l0 4.84375q0.578125 -0.578125 1.390625 -0.875q0.828125 -0.3125 1.796875 -0.3125zm10.864929 -2.875l0 13.0625l-3.015625 0l0 -10.640625l-2.625 0l0 -2.421875l5.640625 0zm11.578857 5.3125l0 2.4375l-8.875 3.375l0 -2.328125l6.21875 -2.265625l-6.21875 -2.28125l0 -2.3125l8.875 3.375z"
      fill-rule="nonzero"
    />
    <path
      fill="#93c47d"
      d="m569.4803 241.31496l210.20477 0l0 84.976395l-210.20477 0z"
      fill-rule="evenodd"
    />
    <path
      stroke="#6aa84f"
      stroke-width="1.0"
      stroke-linejoin="round"
      stroke-linecap="butt"
      d="m569.4803 241.31496l210.20477 0l0 84.976395l-210.20477 0z"
      fill-rule="evenodd"
    />
    <path
      fill="#000000"
      d="m664.22266 281.91064l-6.203125 2.28125l6.203125 2.265625l0 2.328125l-8.875 -3.375l0 -2.4375l8.875 -3.375l0 2.3125zm12.596924 -1.21875l0 10.03125l-2.765625 0l0 -1.1875q-0.578125 0.640625 -1.375 1.0q-0.796875 0.34375 -1.734375 0.34375q-1.984375 0 -3.140625 -1.140625q-1.15625 -1.140625 -1.15625 -3.375l0 -5.671875l2.921875 0l0 5.234375q0 2.421875 2.03125 2.421875q1.046875 0 1.671875 -0.671875q0.640625 -0.6875 0.640625 -2.03125l0 -4.953125l2.90625 0zm2.7075195 -3.8125l2.90625 0l0 13.84375l-2.90625 0l0 -13.84375zm14.30304 6.09375l0 2.4375l-8.875 3.375l0 -2.328125l6.21875 -2.265625l-6.21875 -2.28125l0 -2.3125l8.875 3.375z"
      fill-rule="nonzero"
    />
    <path
      fill="#c27ba0"
      d="m450.79266 397.03674l147.685 0l0 59.716553l-147.685 0z"
      fill-rule="evenodd"
    />
    <path
      stroke="#a64d79"
      stroke-width="1.0"
      stroke-linejoin="round"
      stroke-linecap="butt"
      d="m450.79266 397.03674l147.685 0l0 59.716553l-147.685 0z"
      fill-rule="evenodd"
    />
    <path
      fill="#000000"
      d="m517.8758 425.0025l-6.203125 2.28125l6.203125 2.265625l0 2.328125l-8.875 -3.375l0 -2.4375l8.875 -3.375l0 2.3125zm2.4876099 -5.03125l2.90625 0l0 13.84375l-2.90625 0l0 -13.84375zm5.6155396 3.8125l2.90625 0l0 10.03125l-2.90625 0l0 -10.03125zm1.453125 -1.40625q-0.8125 0 -1.3125 -0.46875q-0.5 -0.46875 -0.5 -1.15625q0 -0.6875 0.5 -1.15625q0.5 -0.46875 1.3125 -0.46875q0.796875 0 1.296875 0.453125q0.515625 0.453125 0.515625 1.125q0 0.71875 -0.515625 1.203125q-0.5 0.46875 -1.296875 0.46875zm12.849915 3.6875l0 2.4375l-8.875 3.375l0 -2.328125l6.21875 -2.265625l-6.21875 -2.28125l0 -2.3125l8.875 3.375z"
      fill-rule="nonzero"
    />
    <path
      fill="#c27ba0"
      d="m606.51184 397.03674l147.685 0l0 59.716553l-147.685 0z"
      fill-rule="evenodd"
    />
    <path
      stroke="#a64d79"
      stroke-width="1.0"
      stroke-linejoin="round"
      stroke-linecap="butt"
      d="m606.51184 397.03674l147.685 0l0 59.716553l-147.685 0z"
      fill-rule="evenodd"
    />
    <path
      fill="#000000"
      d="m673.595 425.0025l-6.203125 2.28125l6.203125 2.265625l0 2.328125l-8.875 -3.375l0 -2.4375l8.875 -3.375l0 2.3125zm2.4875488 -5.03125l2.90625 0l0 13.84375l-2.90625 0l0 -13.84375zm5.6155396 3.8125l2.90625 0l0 10.03125l-2.90625 0l0 -10.03125zm1.453125 -1.40625q-0.8125 0 -1.3125 -0.46875q-0.5 -0.46875 -0.5 -1.15625q0 -0.6875 0.5 -1.15625q0.5 -0.46875 1.3125 -0.46875q0.796875 0 1.296875 0.453125q0.515625 0.453125 0.515625 1.125q0 0.71875 -0.515625 1.203125q-0.5 0.46875 -1.296875 0.46875zm12.849915 3.6875l0 2.4375l-8.875 3.375l0 -2.328125l6.21875 -2.265625l-6.21875 -2.28125l0 -2.3125l8.875 3.375z"
      fill-rule="nonzero"
    />
    <path
      fill="#c27ba0"
      d="m764.7507 397.03674l147.685 0l0 59.716553l-147.685 0z"
      fill-rule="evenodd"
    />
    <path
      stroke="#a64d79"
      stroke-width="1.0"
      stroke-linejoin="round"
      stroke-linecap="butt"
      d="m764.7507 397.03674l147.685 0l0 59.716553l-147.685 0z"
      fill-rule="evenodd"
    />
    <path
      fill="#000000"
      d="m831.8338 425.0025l-6.203125 2.28125l6.203125 2.265625l0 2.328125l-8.875 -3.375l0 -2.4375l8.875 -3.375l0 2.3125zm2.4876099 -5.03125l2.90625 0l0 13.84375l-2.90625 0l0 -13.84375zm5.6155396 3.8125l2.90625 0l0 10.03125l-2.90625 0l0 -10.03125zm1.453125 -1.40625q-0.8125 0 -1.3125 -0.46875q-0.5 -0.46875 -0.5 -1.15625q0 -0.6875 0.5 -1.15625q0.5 -0.46875 1.3125 -0.46875q0.796875 0 1.296875 0.453125q0.515625 0.453125 0.515625 1.125q0 0.71875 -0.515625 1.203125q-0.5 0.46875 -1.296875 0.46875zm12.849915 3.6875l0 2.4375l-8.875 3.375l0 -2.328125l6.21875 -2.265625l-6.21875 -2.28125l0 -2.3125l8.875 3.375z"
      fill-rule="nonzero"
    />
    <path
      fill="#000000"
      fill-opacity="0.0"
      d="m516.08136 185.67455l158.48822 55.653534"
      fill-rule="evenodd"
    />
    <path
      stroke="#000000"
      stroke-width="1.0"
      stroke-linejoin="round"
      stroke-linecap="butt"
      d="m516.08136 185.67455l152.82709 53.66562"
      fill-rule="evenodd"
    />
    <path
      fill="#000000"
      stroke="#000000"
      stroke-width="1.0"
      stroke-linecap="butt"
      d="m668.3612 240.8986l4.8290405 -0.054870605l-3.734558 -3.0620117z"
      fill-rule="evenodd"
    />
    <path
      fill="#000000"
      fill-opacity="0.0"
      d="m674.5827 326.29135l-149.95276 70.74014"
      fill-rule="evenodd"
    />
    <path
      stroke="#000000"
      stroke-width="1.0"
      stroke-linejoin="round"
      stroke-linecap="butt"
      d="m674.5827 326.29135l-144.5263 68.180176"
      fill-rule="evenodd"
    />
    <path
      fill="#000000"
      stroke="#000000"
      stroke-width="1.0"
      stroke-linecap="butt"
      d="m529.3517 392.9777l-3.3995972 3.4300842l4.809021 -0.4423828z"
      fill-rule="evenodd"
    />
    <path
      fill="#000000"
      fill-opacity="0.0"
      d="m674.5827 326.29135l5.763733 70.74014"
      fill-rule="evenodd"
    />
    <path
      stroke="#000000"
      stroke-width="1.0"
      stroke-linejoin="round"
      stroke-linecap="butt"
      d="m674.5827 326.29135l5.2764893 64.75995"
      fill-rule="evenodd"
    />
    <path
      fill="#000000"
      stroke="#000000"
      stroke-width="1.0"
      stroke-linecap="butt"
      d="m678.21295 391.18546l2.0147705 4.388977l1.277771 -4.657257z"
      fill-rule="evenodd"
    />
    <path
      fill="#000000"
      fill-opacity="0.0"
      d="m674.5827 326.29135l164.0 70.74014"
      fill-rule="evenodd"
    />
    <path
      stroke="#000000"
      stroke-width="1.0"
      stroke-linejoin="round"
      stroke-linecap="butt"
      d="m674.5827 326.29135l158.4906 68.36374"
      fill-rule="evenodd"
    />
    <path
      fill="#000000"
      stroke="#000000"
      stroke-width="1.0"
      stroke-linecap="butt"
      d="m832.4191 396.17175l4.821228 0.2807312l-3.5128174 -3.3140564z"
      fill-rule="evenodd"
    />
    <path
      fill="#000000"
      fill-opacity="0.0"
      d="m516.08136 185.67455l-130.64566 55.653534"
      fill-rule="evenodd"
    />
    <path
      stroke="#000000"
      stroke-width="1.0"
      stroke-linejoin="round"
      stroke-linecap="butt"
      d="m516.08136 185.67455l-125.12564 53.30208"
      fill-rule="evenodd"
    />
    <path
      fill="#000000"
      stroke="#000000"
      stroke-width="1.0"
      stroke-linecap="butt"
      d="m390.30838 237.45702l-3.5277405 3.2981262l4.822418 -0.2589264z"
      fill-rule="evenodd"
    />
  </g>
</svg>
